<svg xmlns="http://www.w3.org/2000/svg" viewBox="0 0 1600 900">
  <defs>
    <linearGradient id="bg" x1="0" x2="1" y1="0" y2="1">
      <stop offset="0%" stop-color="#0b1f4b"/>
      <stop offset="55%" stop-color="#123b8b"/>
      <stop offset="100%" stop-color="#f59e0b"/>
    </linearGradient>
    <radialGradient id="glow" cx="75%" cy="20%" r="50%">
      <stop offset="0%" stop-color="#ffffff" stop-opacity="0.30"/>
      <stop offset="100%" stop-color="#ffffff" stop-opacity="0"/>
    </radialGradient>
  </defs>
  <rect width="1600" height="900" fill="url(#bg)"/>
  <rect width="1600" height="900" fill="url(#glow)"/>
  <g opacity="0.12" fill="#ffffff">
    <circle cx="180" cy="150" r="90"/>
    <circle cx="1480" cy="750" r="120"/>
    <circle cx="1210" cy="220" r="55"/>
  </g>
  <g fill="none" stroke="#ffffff" stroke-opacity="0.16" stroke-width="10">
    <path d="M0,680 C280,560 450,760 720,640 C950,540 1180,690 1600,470"/>
    <path d="M0,760 C300,620 460,840 780,730 C1020,650 1250,800 1600,620"/>
  </g>
  <g opacity="0.20">
    <rect x="970" y="180" width="440" height="280" rx="24" fill="#ffffff"/>
    <rect x="1010" y="220" width="360" height="20" rx="10" fill="#0b1f4b"/>
    <rect x="1010" y="270" width="220" height="18" rx="9" fill="#0b1f4b"/>
    <rect x="1010" y="320" width="280" height="18" rx="9" fill="#0b1f4b"/>
    <rect x="1010" y="370" width="160" height="18" rx="9" fill="#0b1f4b"/>
  </g>
  <g opacity="0.22" stroke="#ffffff" fill="none" stroke-width="8">
    <path d="M210 620 l80 -190 l70 120 l85 -170 l100 240" />
  </g>
</svg>